<?xml version="1.0" encoding="UTF-8"?>
<svg version="1.1" xmlns="http://www.w3.org/2000/svg" width="1019" height="385">
<path d="M0 0 C6.90693424 2.69589869 13.54749195 -0.07171695 20.36523438 -1.94824219 C39.56038116 -6.90947638 63.10585512 -7.31165283 81.5 0.5 C82.18239746 0.78939453 82.86479492 1.07878906 83.56787109 1.37695312 C93.13343326 5.56702965 101.48950225 10.77118189 109.5 17.5 C110.15226562 18.03882812 110.80453125 18.57765625 111.4765625 19.1328125 C125.74521131 32.09838836 131.68896382 51.03027412 132.61132812 69.76074219 C132.65500273 72.94753249 132.51402452 75.45792644 131.5 78.5 C130.18 78.5 128.86 78.5 127.5 78.5 C127.47421875 77.51902344 127.4484375 76.53804688 127.421875 75.52734375 C126.69412116 56.10601971 121.42835991 39.6203657 107.55859375 25.52734375 C102.68654686 21.04899762 97.26005973 17.7223285 91.5 14.5 C92.16 15.16 92.82 15.82 93.5 16.5 C93.95632813 16.96148437 94.41265625 17.42296875 94.8828125 17.8984375 C96.02402751 19.02862627 97.18793368 20.13612278 98.3671875 21.2265625 C110.51818295 32.71563602 116.50337169 46.96338092 118.24902344 63.40844727 C118.7410329 67.27940407 119.09789973 69.13088938 122.0234375 71.81640625 C122.84070313 72.37199219 123.65796875 72.92757812 124.5 73.5 C125.625 76.875 125.625 76.875 125.5 80.5 C123.5625 83.9375 123.5625 83.9375 120.5 86.5 C117.43356467 87.2938795 115.76357132 87.01802719 112.5 86.5 C109.20708156 84.38915485 108.61224048 82.85652858 107.4375 79.125 C107.50152556 75.41151772 107.63768828 74.78423182 109.8125 72.0625 C112.5 69.5 112.5 69.5 114.5 69.5 C110.46570545 50.2751215 104.1890546 33.19419431 87.48828125 21.3671875 C71.26212359 11.07170025 53.98034042 3.47120823 34.5 5.5 C27.49524107 6.93576372 27.49524107 6.93576372 21.5 10.5 C22.64275391 11.31791016 22.64275391 11.31791016 23.80859375 12.15234375 C40.92700675 24.65455549 54.40517733 40.0541489 58.5 61.5 C60.29651096 77.90628481 56.03106713 92.99412883 45.796875 106.015625 C40.03369374 113.0780151 33.97000293 119.20985558 26.5 124.5 C25.87867188 124.95117188 25.25734375 125.40234375 24.6171875 125.8671875 C20.85862069 128.5 20.85862069 128.5 18.5 128.5 C18.5 129.16 18.5 129.82 18.5 130.5 C19.18578125 130.62375 19.8715625 130.7475 20.578125 130.875 C23.86636282 131.57836638 27.03132772 132.52724571 30.25 133.5 C35.72716751 135.0697801 40.81233781 136.26980794 46.5 136.5 C47.46035156 136.5515625 48.42070312 136.603125 49.41015625 136.65625 C79.61034643 137.53693598 111.19907053 121.77684692 132.76953125 101.453125 C139.16167368 95.29525436 144.81338412 89.08491781 149.5 81.5 C150.03109375 80.65566406 150.5621875 79.81132812 151.109375 78.94140625 C154.19649846 73.92100992 156.9438465 68.8089342 159.5 63.5 C161.81 63.5 164.12 63.5 166.5 63.5 C165.97511793 69.0462539 163.88445113 73.08353871 161.25 77.875 C160.86714844 78.59171875 160.48429687 79.3084375 160.08984375 80.046875 C157.42107319 84.99168734 154.53039483 89.76919922 151.5 94.5 C158.56266898 86.8245181 163.83247348 79.00252174 168.47973633 69.64916992 C169.68792126 67.37338299 170.76321458 65.40489922 172.5 63.5 C176.33203125 62.953125 176.33203125 62.953125 179.5 63.5 C176.9609006 80.51196596 162.98718175 95.545719 151.5 107.5 C150.8915625 108.19480469 150.283125 108.88960938 149.65625 109.60546875 C135.1266584 125.62104131 112.97272083 134.9567719 92.5 140.5 C91.54335449 140.77021973 91.54335449 140.77021973 90.56738281 141.04589844 C64.47108665 148.33073023 35.28163562 151.15055773 9.4375 141.75 C3.5311255 139.66834784 -0.46188854 138.88627464 -6.5 140.5 C-37.58650353 148.63174607 -64.15842213 147.17340993 -92.14453125 130.96875 C-106.80748391 121.72415638 -116.88062843 108.838677 -122.5 92.5 C-122.74492188 91.79359375 -122.98984375 91.0871875 -123.2421875 90.359375 C-124.89069293 84.80413753 -124.68953255 79.22809497 -124.5 73.5 C-125.28761719 73.20609375 -126.07523438 72.9121875 -126.88671875 72.609375 C-129.93690169 71.31452903 -130.96008202 70.41773934 -132.5 67.5 C-133.08490372 63.57278932 -132.84594305 62.01891457 -130.625 58.6875 C-128.11855093 56.10733184 -127.24538327 55.58282036 -123.6875 55.1875 C-119.7692355 55.57164358 -118.28706733 56.79256317 -115.5 59.5 C-114.07337781 62.35324437 -114.18966132 64.33454549 -114.5 67.5 C-116.375 70.375 -116.375 70.375 -118.5 72.5 C-119.16 72.5 -119.82 72.5 -120.5 72.5 C-117.4308251 92.16268148 -110.95021288 108.10830679 -94.5 120.5 C-90.92034986 122.69588171 -87.27803508 124.66844307 -83.5 126.5 C-84.66015625 125.50033203 -84.66015625 125.50033203 -85.84375 124.48046875 C-101.333962 110.88198175 -110.67039445 95.25523317 -112.10644531 74.38891602 C-112.70762389 64.12287166 -112.70762389 64.12287166 -111.5 60.5 C-109.52 60.995 -109.52 60.995 -107.5 61.5 C-107.47083496 62.05236328 -107.44166992 62.60472656 -107.41162109 63.17382812 C-106.36526404 81.02475338 -103.43755803 95.53753074 -91.5 109.5 C-90.98050781 110.13035156 -90.46101563 110.76070313 -89.92578125 111.41015625 C-80.87574797 121.41762378 -68.01281436 127.1893027 -55.5 131.5 C-54.29988281 131.91378906 -53.09976563 132.32757813 -51.86328125 132.75390625 C-38.13417544 137.08861843 -28.50421453 135.88636105 -15.5 130.5 C-16.39460937 129.76136719 -17.28921875 129.02273437 -18.2109375 128.26171875 C-35.80143123 113.57531597 -50.53357123 96.95514244 -52.71875 73.11328125 C-53.33445539 57.18190431 -46.54997106 43.40677865 -36.5 31.5 C-36.07589844 30.93152344 -35.65179688 30.36304688 -35.21484375 29.77734375 C-30.90223985 24.1986543 -25.21171139 20.19428062 -19.64453125 15.953125 C-17.38992668 14.19425336 -15.46884014 12.53411167 -13.5 10.5 C-38.00832356 0.73459448 -62.3905145 3.30586685 -86.4375 13.3125 C-119.82861598 27.901417 -143.62856238 52.40129901 -157.1875 86.125 C-166.18498068 109.45067785 -167.90239027 133.79612477 -169.5 158.5 C-170.82 158.5 -172.14 158.5 -173.5 158.5 C-174.32174416 118.57587593 -168.33542593 81.18225324 -145.5 47.5 C-145.83 47.5 -146.16 47.5 -146.5 47.5 C-173.79302027 80.09874744 -180.51556677 118.25444257 -182.5 159.5 C-183.82 159.5 -185.14 159.5 -186.5 159.5 C-190.87267673 119.31864624 -180.01359974 75.18258591 -154.72265625 43.3515625 C-129.56882203 12.79169176 -93.58015786 -1.94351913 -54.80078125 -5.9921875 C-35.98425935 -7.66384837 -17.4468558 -8.00839283 0 0 Z M-7.5 28.5 C-14.13751352 35.47789883 -19.35603375 42.81413697 -23.5 51.5 C-23.82742187 52.18191406 -24.15484375 52.86382812 -24.4921875 53.56640625 C-29.10749934 63.74206997 -29.26004445 76.9225342 -25.4375 87.375 C-20.13493415 99.32066801 -10.85216141 114.71200336 1.5 120.5 C10.77719003 118.41857916 18.52121702 107.94037198 23.6484375 100.4921875 C31.40625306 87.95529568 36.59276658 75.75763282 34.03515625 60.77734375 C31.07769239 48.61499238 25.25276839 39.31796592 16.5 30.5 C15.200625 29.13875 15.200625 29.13875 13.875 27.75 C4.05555036 18.44736349 2.7121488 19.01398977 -7.5 28.5 Z M19.5 20.5 C20.345625 21.49 21.19125 22.48 22.0625 23.5 C22.61292969 24.14839844 23.16335937 24.79679687 23.73046875 25.46484375 C24.85055867 26.75307079 25.99649397 28.01964054 27.17578125 29.25390625 C40.60109749 43.54338077 45.23745271 60.12996701 44.640625 79.34375 C44.57101563 80.90609375 44.57101563 80.90609375 44.5 82.5 C49.22365299 75.41452052 48.3259626 64.89527863 47.07421875 56.71875 C43.73078709 44.08344997 35.4382719 34.58328812 26.5 25.5 C25.60539063 24.56027344 24.71078125 23.62054688 23.7890625 22.65234375 C21.78082988 20.27166146 21.78082988 20.27166146 19.5 20.5 Z M-38.5 56.5 C-37.5 59.5 -37.5 59.5 -37.5 59.5 Z M-39.5 59.5 C-42.7462796 73.64450399 -41.5927457 85.1918223 -34.15625 97.9140625 C-28.9166406 106.09477341 -22.47897728 112.77378246 -15.5 119.5 C-14.51 119.005 -14.51 119.005 -13.5 118.5 C-14.06847656 117.96632812 -14.63695312 117.43265625 -15.22265625 116.8828125 C-28.8582332 103.72527748 -37.46358046 88.20232792 -38.125 69.0625 C-38.16367188 68.14017578 -38.20234375 67.21785156 -38.2421875 66.26757812 C-38.33568676 64.01190857 -38.4214391 61.75623084 -38.5 59.5 C-38.83 59.5 -39.16 59.5 -39.5 59.5 Z M43.5 83.5 C44.5 85.5 44.5 85.5 44.5 85.5 Z " fill="#FEFEFE" transform="translate(192.5,105.5)"/>
<path d="M0 0 C202.29 0 404.58 0 613 0 C613 4.29 613 8.58 613 13 C410.71 13 208.42 13 0 13 C0 8.71 0 4.42 0 0 Z " fill="#FEFEFE" transform="translate(392,234)"/>
<path d="M0 0 C9.24 0 18.48 0 28 0 C30.88255798 23.80023536 33.6592111 47.61054293 36.3125 71.4375 C36.44714661 72.64182678 36.58179321 73.84615356 36.72052002 75.0869751 C37.10334167 78.51480667 37.48376366 81.94289497 37.86328125 85.37109375 C37.97866745 86.40361771 38.09405365 87.43614166 38.2129364 88.49995422 C38.36917229 89.92008064 38.36917229 89.92008064 38.52856445 91.36889648 C38.62007278 92.19485825 38.71158112 93.02082001 38.80586243 93.87181091 C39 96 39 96 39 99 C30.42 99 21.84 99 13 99 C11.77036367 92.85181836 11.936672 87.26947191 12 81 C4.08 81.33 -3.84 81.66 -12 82 C-14.64 87.61 -17.28 93.22 -20 99 C-28.91 99 -37.82 99 -47 99 C-45.47696576 94.43089727 -43.80524921 90.28968416 -41.69140625 86.00390625 C-41.36917587 85.34281357 -41.0469455 84.68172089 -40.71495056 84.00059509 C-39.66740792 81.8529469 -38.61489785 79.70777254 -37.5625 77.5625 C-36.46071109 75.30587126 -35.36030109 73.04857362 -34.25997925 70.79122925 C-33.52741981 69.28852601 -32.7944493 67.7860231 -32.06106567 66.28372192 C-29.17555099 60.37086816 -26.32745393 54.44084252 -23.5 48.5 C-18.85324437 38.75103079 -14.15010595 29.0297548 -9.4375 19.3125 C-8.90334473 18.21083496 -8.90334473 18.21083496 -8.35839844 17.08691406 C-7.34217008 14.99135513 -6.3254997 12.89601145 -5.30859375 10.80078125 C-4.85153297 9.85861504 -4.85153297 9.85861504 -4.38523865 8.89741516 C-2.94047063 5.92258059 -1.4790417 2.9580834 0 0 Z M7 39 C3.04 47.91 3.04 47.91 -1 57 C2.3 57 5.6 57 9 57 C8.67 51.06 8.34 45.12 8 39 C7.67 39 7.34 39 7 39 Z " fill="#FEFEFE" transform="translate(678,117)"/>
<path d="M0 0 C7.92 0 15.84 0 24 0 C23.39002415 9.41131782 21.95411243 18.53031735 20.19921875 27.78125 C19.91828232 29.28551335 19.63784152 30.78986934 19.35786438 32.29431152 C18.62333438 36.23307572 17.88147562 40.17042529 17.13818359 44.10754395 C16.54223004 47.2711663 15.95164094 50.43577854 15.36128044 53.60044861 C12.84134225 67.10800553 10.30824838 80.61369601 7.64453125 94.09375 C7.48780441 94.89478149 7.33107758 95.69581299 7.16960144 96.52111816 C6.1200889 101.75982221 6.1200889 101.75982221 5 104 C-4 104 -13 104 -22 104 C-22.58007812 104.32226562 -23.16015625 104.64453125 -23.7578125 104.9765625 C-28.70556947 107.23494635 -34.6955658 106.49401017 -40 106 C-46.05959497 103.23597423 -49.86366299 98.47529796 -52.62109375 92.46875 C-54.43405829 87.42227044 -54.45467548 82.56444638 -54.375 77.25 C-54.35977295 75.78747803 -54.35977295 75.78747803 -54.34423828 74.29541016 C-54.00646297 58.5927856 -49.12284197 45.52794192 -38.171875 34.0625 C-32.13412877 28.32881293 -26.40964402 25.71375153 -18 25.75 C-16.205625 25.74226563 -16.205625 25.74226563 -14.375 25.734375 C-11 26 -11 26 -6 28 C-4.02 18.76 -2.04 9.52 0 0 Z M-22 51 C-28.54353694 58.88116604 -29.21274206 67.26684413 -29.36328125 77.14453125 C-29.22687278 79.9833498 -29.22687278 79.9833498 -27.6953125 81.8671875 C-24.86677841 83.7572218 -22.29362472 83.28891445 -19 83 C-16.80957262 82.418325 -16.80957262 82.418325 -15 81 C-14.00246868 78.53324708 -14.00246868 78.53324708 -13.55078125 75.58203125 C-13.34259766 74.49212891 -13.13441406 73.40222656 -12.91992188 72.27929688 C-12.71947266 71.13525391 -12.51902344 69.99121094 -12.3125 68.8125 C-12.10044922 67.68779297 -11.88839844 66.56308594 -11.66992188 65.40429688 C-10.65381135 59.95191832 -9.72415601 54.49881103 -9 49 C-14.41908471 47.80780136 -17.42285236 47.71639408 -22 51 Z " fill="#FEFEFE" transform="translate(849,112)"/>
<path d="M0 0 C1.32380173 -0.01210762 1.32380173 -0.01210762 2.67434692 -0.02445984 C4.5524091 -0.03832828 6.43049677 -0.04903801 8.30859375 -0.05688477 C11.14894644 -0.07394033 13.98808666 -0.11778021 16.828125 -0.16210938 C27.67594842 -0.25517645 37.61118818 -0.15001602 46.7578125 6.48828125 C53.76840887 14.01184809 54.79153439 22.23188143 54.59765625 32.20703125 C54.0916196 42.74064997 50.2156487 51.68661935 42.578125 58.87890625 C33.56954623 66.28014524 22.91151829 69.13511039 11.5078125 69.80078125 C10.81494141 69.84396484 10.12207031 69.88714844 9.40820312 69.93164062 C7.71242564 70.03689578 6.01639198 70.13800988 4.3203125 70.23828125 C4.17408447 71.01018799 4.02785645 71.78209473 3.87719727 72.57739258 C3.21453318 76.06893049 2.548711 79.55985882 1.8828125 83.05078125 C1.65271484 84.26572266 1.42261719 85.48066406 1.18554688 86.73242188 C0.96318359 87.89580078 0.74082031 89.05917969 0.51171875 90.2578125 C0.20536499 91.86813354 0.20536499 91.86813354 -0.10717773 93.51098633 C-0.6796875 96.23828125 -0.6796875 96.23828125 -1.6796875 99.23828125 C-10.2596875 99.23828125 -18.8396875 99.23828125 -27.6796875 99.23828125 C-24.12903749 79.23584127 -20.50247975 59.24909984 -16.80322266 39.27368164 C-16.21145721 36.07715159 -15.62211157 32.88018841 -15.03466797 29.68286133 C-14.31265659 25.75313494 -13.58687034 21.82412437 -12.85823822 17.89562035 C-12.58419644 16.41462741 -12.31148401 14.93338784 -12.04013824 13.45189857 C-11.66615854 11.41165203 -11.28732613 9.37236584 -10.90722656 7.33325195 C-10.69358459 6.17638382 -10.47994263 5.01951569 -10.25982666 3.82759094 C-9.0589111 -1.53240284 -4.65019371 0.04007516 0 0 Z M12.3203125 23.23828125 C11.0003125 30.49828125 9.6803125 37.75828125 8.3203125 45.23828125 C17.80474917 45.37007136 17.80474917 45.37007136 25.1328125 40.73828125 C27.3327901 37.95936218 27.50209088 35.14936226 27.5703125 31.73828125 C27.59609375 30.96484375 27.621875 30.19140625 27.6484375 29.39453125 C27.23717744 26.69196511 26.46583242 25.88251147 24.3203125 24.23828125 C20.42433383 22.7639396 20.42433383 22.7639396 12.3203125 23.23828125 Z " fill="#FEFEFE" transform="translate(419.6796875,116.76171875)"/>
<path d="M0 0 C0.85029785 0.00161133 1.7005957 0.00322266 2.57666016 0.00488281 C8.70728347 0.12506801 13.59062296 0.85003554 18.75 4.375 C19.678125 4.973125 20.60625 5.57125 21.5625 6.1875 C28.14662751 12.77162751 29.32793308 20.28649238 29.75 29.375 C29.39201754 34.11468771 28.70189538 38.71992455 27.75 43.375 C27.52763672 44.53128906 27.52763672 44.53128906 27.30078125 45.7109375 C27.11902344 46.26007813 26.93726563 46.80921875 26.75 47.375 C23.36606992 49.06696504 19.52522209 48.49486549 15.8046875 48.47265625 C14.9196756 48.4712413 14.0346637 48.46982635 13.12283325 48.46836853 C10.29018809 48.4627614 7.45762136 48.45020771 4.625 48.4375 C2.70703239 48.43248592 0.78906354 48.42792285 -1.12890625 48.42382812 C-5.83596782 48.41278966 -10.5429706 48.39552025 -15.25 48.375 C-13.5869451 53.0997727 -13.5869451 53.0997727 -10.4453125 56.78515625 C-2.18796133 59.0037684 5.39340747 57.83007416 12.7265625 53.6640625 C14.41458677 52.58868024 16.08467821 51.48521452 17.75 50.375 C20.9375 50.25 20.9375 50.25 23.75 50.375 C25.63756234 54.15012468 23.90407614 58.72429137 23.1875 62.75 C23.04248047 63.7090625 22.89746094 64.668125 22.74804688 65.65625 C21.95742088 70.07391121 21.4844406 72.65531632 18.22265625 75.8515625 C10.20763567 79.36771326 3.00556218 80.91372966 -5.75 80.8125 C-7.13082764 80.80114014 -7.13082764 80.80114014 -8.53955078 80.78955078 C-15.08637396 80.63026917 -20.63957919 80.00193871 -26.25 76.375 C-26.89839844 75.9625 -27.54679688 75.55 -28.21484375 75.125 C-34.14146772 70.71448914 -36.96196898 64.23909306 -39.25 57.375 C-40.70916134 40.37627356 -38.67342098 24.90483273 -27.58984375 11.34375 C-23.67471414 7.1343168 -19.53585685 4.56189371 -14.25 2.375 C-13.53585937 2.01792969 -12.82171875 1.66085938 -12.0859375 1.29296875 C-8.04905093 -0.01373696 -4.21968821 -0.00820791 0 0 Z M-11.25 25.375 C-11.58 26.365 -11.91 27.355 -12.25 28.375 C-6.64 28.375 -1.03 28.375 4.75 28.375 C4.42 26.065 4.09 23.755 3.75 21.375 C-2.60140642 18.19929679 -6.83930856 20.8592921 -11.25 25.375 Z " fill="#FEFEFE" transform="translate(907.25,137.625)"/>
<path d="M0 0 C8.25 0 16.5 0 25 0 C24.38694733 6.13052674 23.76447361 11.81984821 22.625 17.80859375 C22.35935036 19.2298131 22.09372614 20.65103721 21.828125 22.07226562 C21.41488369 24.25524712 20.99992517 26.43789264 20.58398438 28.62036133 C18.98229642 37.05674024 17.53329599 45.413245 17 54 C17.74781738 53.85618896 18.49563477 53.71237793 19.26611328 53.56420898 C20.55751221 53.31586304 20.55751221 53.31586304 21.875 53.0625 C25.55280615 52.37251355 25.55280615 52.37251355 29 51 C29.63969879 48.99299935 29.63969879 48.99299935 30.03735352 46.52783203 C30.21416153 45.57659454 30.39096954 44.62535706 30.57313538 43.64529419 C30.75653976 42.60992523 30.93994415 41.57455627 31.12890625 40.5078125 C31.4207505 38.92249222 31.4207505 38.92249222 31.7184906 37.30514526 C32.34139313 33.91320831 32.95235906 30.51925362 33.5625 27.125 C34.17845337 23.73833625 34.79684333 20.35213406 35.41722107 16.96627808 C35.80316751 14.85561311 36.18611555 12.74439728 36.56581116 10.63259888 C36.73946701 9.67505707 36.91312286 8.71751526 37.09204102 7.73095703 C37.24367203 6.88792023 37.39530304 6.04488342 37.55152893 5.17630005 C38 3 38 3 39 0 C46.92 0 54.84 0 63 0 C62.44167328 9.10671891 61.28406571 17.83359233 59.53125 26.78125 C59.29088013 28.03836792 59.05051025 29.29548584 58.80285645 30.59069824 C58.17051357 33.89076651 57.53205157 37.18952295 56.89044189 40.48779297 C56.23801009 43.85020846 55.59404368 47.21424404 54.94921875 50.578125 C51.54197878 68.32331392 51.54197878 68.32331392 50 76 C40.66666667 76 31.33333333 76 22 76 C20.89591797 76.47953125 20.89591797 76.47953125 19.76953125 76.96875 C13.69925033 79.22905206 5.36353645 79.43656196 -0.65234375 76.8671875 C-4.85999986 73.87403175 -7.06022475 70.82941095 -9 66 C-9.31907518 63.18868898 -9.47608366 60.67833469 -9.4375 57.875 C-9.43065186 57.08786621 -9.42380371 56.30073242 -9.41674805 55.48974609 C-9.21983229 48.01579754 -7.83613486 40.95753576 -6.22265625 33.6796875 C-4.68724537 26.74190499 -3.48064889 19.74708012 -2.25 12.75 C-2.02739502 11.49268066 -1.80479004 10.23536133 -1.57543945 8.93994141 C-1.04836771 5.96030086 -0.5238969 2.98020041 0 0 Z " fill="#FEFEFE" transform="translate(516,140)"/>
<path d="M0 0 C4.95927776 3.71945832 8.25466505 7.7615375 9.5 13.875 C10.02655712 22.74911368 8.86666994 31.10681427 7.25 39.8125 C7.02473633 41.06708008 6.79947266 42.32166016 6.56738281 43.61425781 C5.88931007 47.36995829 5.19606286 51.12259753 4.5 54.875 C4.10402187 57.0481507 3.7081788 59.22132602 3.3125 61.39453125 C2.95961765 63.30492518 2.60553384 65.21509775 2.25 67.125 C2.08725586 68.00534912 1.92451172 68.88569824 1.75683594 69.79272461 C0.61888026 75.75611974 0.61888026 75.75611974 -0.5 76.875 C-2.35369611 76.96237645 -4.21067541 76.98198153 -6.06640625 76.97265625 C-7.19111328 76.96943359 -8.31582031 76.96621094 -9.47460938 76.96289062 C-10.65861328 76.95451172 -11.84261719 76.94613281 -13.0625 76.9375 C-14.25037109 76.93298828 -15.43824219 76.92847656 -16.66210938 76.92382812 C-19.60812226 76.91199675 -22.55403681 76.89551287 -25.5 76.875 C-25.25765625 75.58924072 -25.0153125 74.30348145 -24.765625 72.97875977 C-23.86290631 68.17753257 -22.97091124 63.37436342 -22.08203125 58.57055664 C-21.69690356 56.49742594 -21.30892575 54.4248225 -20.91796875 52.3527832 C-20.35434693 49.36285574 -19.80123015 46.37113994 -19.25 43.37890625 C-19.07500977 42.46291153 -18.90001953 41.54691681 -18.71972656 40.60316467 C-17.68775857 34.9317206 -17.33594048 29.64015405 -17.5 23.875 C-23.33554372 23.57187509 -23.33554372 23.57187509 -28.5 25.875 C-29.4288719 27.91234912 -29.4288719 27.91234912 -29.80859375 30.37109375 C-29.99591064 31.31017578 -30.18322754 32.24925781 -30.3762207 33.21679688 C-30.56144287 34.23837891 -30.74666504 35.25996094 -30.9375 36.3125 C-31.14141357 37.36115234 -31.34532715 38.40980469 -31.55541992 39.49023438 C-32.22230177 42.9485549 -32.86235965 46.41117609 -33.5 49.875 C-33.97595912 52.40766555 -34.45252833 54.94021652 -34.9296875 57.47265625 C-36.1446826 63.93589593 -37.32053669 70.40480128 -38.5 76.875 C-46.75 76.875 -55 76.875 -63.5 76.875 C-61.88953972 64.84244183 -59.75906912 52.93687037 -57.5625 41 C-57.21134997 39.07947069 -56.86043728 37.15889797 -56.50976562 35.23828125 C-55.66913832 30.63892705 -54.82239301 26.04072866 -53.97296143 21.44299316 C-53.51607744 18.96229414 -53.06395585 16.48076841 -52.61279297 13.99902344 C-52.34485346 12.53838817 -52.07679489 11.07777474 -51.80859375 9.6171875 C-51.57841553 8.35503418 -51.3482373 7.09288086 -51.11108398 5.79248047 C-50.5 2.875 -50.5 2.875 -49.5 0.875 C-41.25 0.875 -33 0.875 -24.5 0.875 C-24.5 1.535 -24.5 2.195 -24.5 2.875 C-23.448125 2.215 -22.39625 1.555 -21.3125 0.875 C-14.67121243 -2.45156294 -6.97090122 -2.24064682 0 0 Z " fill="#FEFEFE" transform="translate(782.5,139.125)"/>
<path d="M0 0 C1.32354492 0.00519653 1.32354492 0.00519653 2.67382812 0.01049805 C10.41123779 0.13931254 19.49237323 0.46285637 25.25 6.3125 C25.4921875 8.84375 25.4921875 8.84375 25.125 11.8125 C24.99996094 12.86953125 24.87492188 13.9265625 24.74609375 15.015625 C24.02541856 19.80499396 23.21244129 24.56570219 22.25 29.3125 C16.50605908 30.21943804 13.14685149 27.7293482 8.51953125 24.72265625 C5.03876431 22.55990777 2.32572389 22.17543015 -1.6875 22.1875 C-2.54214844 22.18492187 -3.39679687 22.18234375 -4.27734375 22.1796875 C-6.57680852 22.30319746 -8.54640348 22.66829313 -10.75 23.3125 C-10.255 24.7975 -10.255 24.7975 -9.75 26.3125 C-8.07377613 27.1860387 -8.07377613 27.1860387 -5.99609375 27.70703125 C-4.84294678 28.05217773 -4.84294678 28.05217773 -3.66650391 28.40429688 C-2.43939697 28.76104492 -2.43939697 28.76104492 -1.1875 29.125 C8.38162951 32.11429941 15.19752922 35.21805259 20.25 44.3125 C20.64080093 47.11132428 20.82523426 49.41040314 20.75 52.1875 C20.73864014 52.89495361 20.72728027 53.60240723 20.71557617 54.33129883 C20.44358562 61.63630833 18.55159901 65.71582419 13.8125 71.0625 C12.966875 71.805 12.12125 72.5475 11.25 73.3125 C10.5075 74.01375 9.765 74.715 9 75.4375 C1.75762603 80.37548225 -6.01031664 80.83231038 -14.5625 80.75 C-15.62114258 80.74532715 -16.67978516 80.7406543 -17.77050781 80.73583984 C-27.23096327 80.55665351 -34.32950034 78.60000212 -42.75 74.3125 C-41.65863407 66.25496854 -40.47168056 58.2615358 -38.75 50.3125 C-35.5 50.0625 -35.5 50.0625 -31.75 50.3125 C-30.37150897 51.59909163 -29.04470975 52.94163085 -27.75 54.3125 C-20.3234067 59.31995243 -12.339055 58.71988601 -3.75 58.3125 C-3.75 56.9925 -3.75 55.6725 -3.75 54.3125 C-4.9875 54.085625 -6.225 53.85875 -7.5 53.625 C-16.37151249 51.62401217 -25.72558711 48.44667316 -31.75 41.3125 C-35.54000777 35.07732593 -35.83033459 28.11119548 -34.24609375 21.07421875 C-31.42210841 12.76363333 -26.9616785 7.98494799 -19.4453125 3.57421875 C-12.96666334 0.5414598 -7.03012314 -0.04457024 0 0 Z " fill="#FEFEFE" transform="translate(616.75,137.6875)"/>
<path d="M0 0 C8.58 0 17.16 0 26 0 C29.4375 7.375 29.4375 7.375 30.51733398 9.69287109 C32.22552141 13.3623582 32.22552141 13.3623582 34 17 C34.35827881 16.52054932 34.71655762 16.04109863 35.08569336 15.54711914 C36.70213265 13.38495777 38.31979979 11.22371811 39.9375 9.0625 C40.50146484 8.30775391 41.06542969 7.55300781 41.64648438 6.77539062 C42.45375977 5.69741211 42.45375977 5.69741211 43.27734375 4.59765625 C43.77484131 3.93258057 44.27233887 3.26750488 44.78491211 2.58227539 C46 1 46 1 47 0 C49.07262076 -0.08767112 51.14820294 -0.10695873 53.22265625 -0.09765625 C54.48271484 -0.09443359 55.74277344 -0.09121094 57.04101562 -0.08789062 C58.38151109 -0.07953403 59.72200588 -0.07106907 61.0625 -0.0625 C62.40689942 -0.0574866 63.7513006 -0.05292342 65.09570312 -0.04882812 C68.39717941 -0.03699488 71.69856803 -0.02050971 75 0 C73.19654037 3.78391796 70.85494361 6.92379242 68.25 10.1875 C67.77699463 10.7853833 67.30398926 11.3832666 66.81665039 11.99926758 C62.15495797 17.86373521 57.38659061 23.64115987 52.59667969 29.40112305 C51.74251465 30.43039917 51.74251465 30.43039917 50.87109375 31.48046875 C50.36505615 32.08785889 49.85901855 32.69524902 49.33764648 33.32104492 C46.68817728 36.40421783 46.68817728 36.40421783 46.17749023 40.25341797 C47.19371937 43.64688126 48.61935494 46.76722779 50.16015625 49.9453125 C50.46948593 50.59700409 50.77881561 51.24869568 51.09751892 51.9201355 C52.41449966 54.69442197 53.74443112 57.46243971 55.07348633 60.23095703 C56.04455599 62.25854858 57.00877315 64.28929728 57.97265625 66.3203125 C58.27575211 66.94535675 58.57884796 67.570401 58.89112854 68.21438599 C60.22077434 71.01828259 61 72.85254906 61 76 C52.42 76 43.84 76 35 76 C30.5 67 30.5 67 28.75 63 C28.41484375 62.236875 28.0796875 61.47375 27.734375 60.6875 C27.49203125 60.130625 27.2496875 59.57375 27 59 C26.64172119 59.47945068 26.28344238 59.95890137 25.91430664 60.45288086 C24.29786735 62.61504223 22.68020021 64.77628189 21.0625 66.9375 C20.49853516 67.69224609 19.93457031 68.44699219 19.35351562 69.22460938 C18.81533203 69.94326172 18.27714844 70.66191406 17.72265625 71.40234375 C17.22515869 72.06741943 16.72766113 72.73249512 16.21508789 73.41772461 C15 75 15 75 14 76 C11.85441173 76.08775605 9.70595579 76.10695219 7.55859375 76.09765625 C6.25341797 76.09443359 4.94824219 76.09121094 3.60351562 76.08789062 C2.2148431 76.07953401 0.82617123 76.07106905 -0.5625 76.0625 C-1.95507656 76.05748666 -3.34765481 76.05292347 -4.74023438 76.04882812 C-8.1601987 76.03699434 -11.58007844 76.0205088 -15 76 C-15 74 -15 74 -12.765625 71.6953125 C-11.85296875 70.80585938 -10.9403125 69.91640625 -10 69 C-8.55915819 67.31200649 -7.1426746 65.60294811 -5.75 63.875 C-4.97398437 62.9159375 -4.19796875 61.956875 -3.3984375 60.96875 C-2.60695313 59.9890625 -1.81546875 59.009375 -1 58 C0.54077829 56.12426991 2.08242606 54.24925366 3.625 52.375 C4.3571875 51.47265625 5.089375 50.5703125 5.84375 49.640625 C7.26093526 47.90508653 8.69805498 46.18560253 10.15625 44.484375 C10.8059375 43.70578125 11.455625 42.9271875 12.125 42.125 C12.70507812 41.44695312 13.28515625 40.76890625 13.8828125 40.0703125 C15.4014296 37.256092 14.82188632 36.06277451 14 33 C13.16800268 31.00094063 12.27820664 29.02544264 11.34765625 27.0703125 C10.81849609 25.94496094 10.28933594 24.81960937 9.74414062 23.66015625 C8.91172852 21.91025391 8.91172852 21.91025391 8.0625 20.125 C6.96517814 17.81741556 5.8725813 15.50757719 4.78515625 13.1953125 C4.29926025 12.17453613 3.81336426 11.15375977 3.31274414 10.10205078 C2 7 2 7 0 0 Z " fill="#FEFEFE" transform="translate(940,140)"/>
<path d="M0 0 C0.53625 0.2475 1.0725 0.495 1.625 0.75 C0.875 5.5 0.875 5.5 -1.375 7.75 C0.605 8.74 2.585 9.73 4.625 10.75 C4.955 10.09 5.285 9.43 5.625 8.75 C7.935 8.75 10.245 8.75 12.625 8.75 C11.66144647 19.30808656 11.66144647 19.30808656 10.625 23.75 C13.76754176 21.22566318 14.18195052 19.03937732 14.75 15.125 C15.54166667 9.83333333 15.54166667 9.83333333 16.625 8.75 C18.31108966 8.67794489 20.00000659 8.66613932 21.6875 8.6875 C22.60660156 8.69652344 23.52570313 8.70554687 24.47265625 8.71484375 C25.18292969 8.72644531 25.89320313 8.73804688 26.625 8.75 C26.625 7.1 26.625 5.45 26.625 3.75 C29.265 3.75 31.905 3.75 34.625 3.75 C34.295 5.4 33.965 7.05 33.625 8.75 C38.245 8.75 42.865 8.75 47.625 8.75 C48.12 10.235 48.12 10.235 48.625 11.75 C49.02976562 11.27304687 49.43453125 10.79609375 49.8515625 10.3046875 C52.92650246 7.60903528 56.65193913 7.60336682 60.625 7.75 C63.5625 9.1875 63.5625 9.1875 65.625 10.75 C67.78532397 10.95521468 67.78532397 10.95521468 69.625 9.1875 C73.99679832 7.09267997 77.94981669 7.81496334 82.625 8.75 C83.625 9.75 83.625 9.75 83.7578125 12.18359375 C83.75523437 13.17488281 83.75265625 14.16617187 83.75 15.1875 C83.75257813 16.17621094 83.75515625 17.16492188 83.7578125 18.18359375 C83.625 20.75 83.625 20.75 82.625 22.75 C83.615 22.42 84.605 22.09 85.625 21.75 C85.295 21.42 84.965 21.09 84.625 20.75 C84.15735908 13.61847599 84.15735908 13.61847599 85.9375 10.3125 C88.48551326 7.95322846 90.57849703 7.75344466 94 7.5 C97.81372515 7.76301553 99.57661362 8.53299172 102.625 10.75 C102.46 11.53375 102.295 12.3175 102.125 13.125 C101.57174876 16.029569 101.65041319 18.08672478 101.875 21.0625 C101.58323447 25.3660415 100.67713266 26.78507113 97.625 29.75 C93.91955389 30.9851487 90.47594809 31.326893 86.625 30.75 C83.625 28.75 83.625 28.75 81.625 26.75 C81.17125 27.224375 80.7175 27.69875 80.25 28.1875 C77.21415501 31.10658172 74.71383578 30.86742491 70.59765625 30.8828125 C68.625 30.75 68.625 30.75 65.625 29.75 C64.4375 27.6875 64.4375 27.6875 63.625 25.75 C62.965 26.575 62.305 27.4 61.625 28.25 C58.17288249 31.12676459 58.17288249 31.12676459 54.5625 31.1875 C49.02226027 30.57191781 49.02226027 30.57191781 46.625 28.75 C46.13 27.265 46.13 27.265 45.625 25.75 C44.965 27.4 44.305 29.05 43.625 30.75 C40.29166667 30.75 36.95833333 30.75 33.625 30.75 C32.47 30.79125 31.315 30.8325 30.125 30.875 C26.625 30.75 26.625 30.75 23.625 28.75 C23.32240785 24.13546977 23.66692574 20.26663577 24.625 15.75 C24.13 15.255 24.13 15.255 23.625 14.75 C22.305 20.03 20.985 25.31 19.625 30.75 C7.34519231 31.24615385 7.34519231 31.24615385 3.69921875 28.734375 C3.01472656 28.07953125 2.33023438 27.4246875 1.625 26.75 C0.965 27.41 0.305 28.07 -0.375 28.75 C-3.75106075 31.00070717 -5.48920099 31.33571814 -9.4375 31.15625 C-12.44683151 30.52526113 -14.24393684 28.88106316 -16.375 26.75 C-17.035 27.41 -17.695 28.07 -18.375 28.75 C-21.75106075 31.00070717 -23.48920099 31.33571814 -27.4375 31.15625 C-30.44683151 30.52526113 -32.24393684 28.88106316 -34.375 26.75 C-34.705 28.07 -35.035 29.39 -35.375 30.75 C-37.83362401 30.80383848 -40.2910755 30.84359038 -42.75 30.875 C-43.79800781 30.90013672 -43.79800781 30.90013672 -44.8671875 30.92578125 C-46.70397486 30.94344267 -48.54101963 30.85303261 -50.375 30.75 C-52.78986943 28.33513057 -52.6711925 27.62292211 -52.6875 24.3125 C-52.70425781 23.53003906 -52.72101562 22.74757813 -52.73828125 21.94140625 C-52.29542423 19.26997843 -51.31921318 18.54223965 -49.375 16.75 C-49.54 16.110625 -49.705 15.47125 -49.875 14.8125 C-50.375 12.75 -50.375 12.75 -49.125 10.5625 C-46.55306004 7.89870504 -44.58939448 7.76169424 -40.9375 7.5625 C-35.74497319 7.83579088 -35.74497319 7.83579088 -33.375 9.75 C-32.625 12.375 -32.625 12.375 -32.375 14.75 C-31.983125 13.96625 -31.59125 13.1825 -31.1875 12.375 C-29.03295884 9.25463005 -28.05256944 8.56723765 -24.375 7.75 C-20.65582402 7.75727823 -17.39608895 7.95227426 -14.375 10.3125 C-13.88 11.0240625 -13.88 11.0240625 -13.375 11.75 C-10.79380929 10.01877535 -10.79380929 10.01877535 -8.375 7.75 C-8.375 6.43 -8.375 5.11 -8.375 3.75 C-3.47993047 -0.36630847 -3.47993047 -0.36630847 0 0 Z M-43.375 13.75 C-43.045 14.74 -42.715 15.73 -42.375 16.75 C-41.715 16.75 -41.055 16.75 -40.375 16.75 C-40.375 15.76 -40.375 14.77 -40.375 13.75 C-41.365 13.75 -42.355 13.75 -43.375 13.75 Z M46.625 13.75 C47.625 17.75 47.625 17.75 47.625 17.75 Z M91.625 13.75 C91.625 14.41 91.625 15.07 91.625 15.75 C92.945 15.42 94.265 15.09 95.625 14.75 C94.305 14.42 92.985 14.09 91.625 13.75 Z M-24.375 14.75 C-25.035 17.72 -25.695 20.69 -26.375 23.75 C-25.385 23.75 -24.395 23.75 -23.375 23.75 C-23.045 23.09 -22.715 22.43 -22.375 21.75 C-20.05343403 21.34270772 -17.7181213 21.00561323 -15.375 20.75 C-15.375 19.76 -15.375 18.77 -15.375 17.75 C-17.685 17.75 -19.995 17.75 -22.375 17.75 C-22.045 16.76 -21.715 15.77 -21.375 14.75 C-22.365 14.75 -23.355 14.75 -24.375 14.75 Z M-7.375 14.75 C-3.375 15.75 -3.375 15.75 -3.375 15.75 Z M32.625 14.75 C32.295 17.39 31.965 20.03 31.625 22.75 C32.285 22.09 32.945 21.43 33.625 20.75 C36.25 20.625 36.25 20.625 38.625 20.75 C38.955 18.44 39.285 16.13 39.625 13.75 C37.28640564 13.75 34.92469577 14.35856242 32.625 14.75 Z M55.625 14.75 C54.12678941 18.12097383 53.625 19.95442119 53.625 23.75 C54.615 23.75 55.605 23.75 56.625 23.75 C56.625 22.76 56.625 21.77 56.625 20.75 C59.265 20.75 61.905 20.75 64.625 20.75 C64.625 19.76 64.625 18.77 64.625 17.75 C62.315 17.75 60.005 17.75 57.625 17.75 C57.955 16.76 58.285 15.77 58.625 14.75 C57.635 14.75 56.645 14.75 55.625 14.75 Z M73.625 14.75 C71.76723235 17.88498292 71.42359524 20.12471432 71.625 23.75 C72.945 23.42 74.265 23.09 75.625 22.75 C75.955 20.11 76.285 17.47 76.625 14.75 C75.635 14.75 74.645 14.75 73.625 14.75 Z M2.625 18.75 C2.625 19.41 2.625 20.07 2.625 20.75 C0.315 20.75 -1.995 20.75 -4.375 20.75 C-4.375 21.08 -4.375 21.41 -4.375 21.75 C-2.065 21.75 0.245 21.75 2.625 21.75 C2.955 22.41 3.285 23.07 3.625 23.75 C3.625 22.1 3.625 20.45 3.625 18.75 C3.295 18.75 2.965 18.75 2.625 18.75 Z M-45.375 21.75 C-45.375 22.74 -45.375 23.73 -45.375 24.75 C-44.055 24.42 -42.735 24.09 -41.375 23.75 C-41.375 23.09 -41.375 22.43 -41.375 21.75 C-42.695 21.75 -44.015 21.75 -45.375 21.75 Z M-8.375 21.75 C-8.045 22.74 -7.715 23.73 -7.375 24.75 C-6.385 24.42 -5.395 24.09 -4.375 23.75 C-4.375 23.09 -4.375 22.43 -4.375 21.75 C-5.695 21.75 -7.015 21.75 -8.375 21.75 Z M90.625 22.75 C90.625 23.41 90.625 24.07 90.625 24.75 C91.945 24.42 93.265 24.09 94.625 23.75 C93.305 23.42 91.985 23.09 90.625 22.75 Z M36.625 26.75 C37.625 28.75 37.625 28.75 37.625 28.75 Z " fill="#FEFEFE" transform="translate(781.375,259.25)"/>
<path d="M0 0 C1.00023193 0.00523682 2.00046387 0.01047363 3.03100586 0.01586914 C4.1105957 0.0190918 5.19018555 0.02231445 6.30249023 0.02563477 C8.00695312 0.03820312 8.00695312 0.03820312 9.74584961 0.05102539 C11.45611328 0.05779297 11.45611328 0.05779297 13.20092773 0.06469727 C16.02845312 0.07652792 18.85587601 0.09301129 21.68334961 0.11352539 C20.94395422 9.73544259 19.15470281 19.1269594 17.40991211 28.60571289 C17.08198722 30.40108989 16.75430397 32.19651104 16.42684937 33.99197388 C15.74183602 37.74277055 15.05396007 41.49302763 14.36401367 45.24291992 C13.48563766 50.0181818 12.61434064 54.79470249 11.74520302 59.57165337 C11.07026736 63.27678383 10.39156789 66.98121744 9.71177292 70.68545914 C9.38933491 72.44487934 9.06802077 74.20450593 8.74791336 75.96435165 C7.02181876 85.44135157 5.15193106 94.79437122 2.68334961 104.11352539 C-5.23665039 104.11352539 -13.15665039 104.11352539 -21.31665039 104.11352539 C-20.19163271 92.86334857 -20.19163271 92.86334857 -19.1809082 87.34814453 C-18.95687317 86.11467789 -18.73283813 84.88121124 -18.50201416 83.61036682 C-18.2580228 82.28978879 -18.01394065 80.96922753 -17.76977539 79.64868164 C-17.51380092 78.24798161 -17.25817312 76.84721818 -17.00286865 75.44639587 C-16.33101647 71.76546762 -15.65436074 68.08543845 -14.97668457 64.40557861 C-14.30574297 60.75734613 -13.63954981 57.10824728 -12.97290039 53.45922852 C-11.80434591 47.0662299 -10.62903888 40.67449706 -9.45056915 34.28331947 C-8.69566098 30.18514986 -7.94748623 26.08582558 -7.20550919 21.9852953 C-6.63570535 18.8387775 -6.0615392 15.69305372 -5.48852539 12.54711914 C-5.28253723 11.39905289 -5.07654907 10.25098663 -4.86431885 9.06813049 C-4.67424255 8.02922165 -4.48416626 6.99031281 -4.28833008 5.91992188 C-4.04164581 4.55624733 -4.04164581 4.55624733 -3.78997803 3.1650238 C-3.12745263 0.29350374 -2.98573119 0.1463131 0 0 Z " fill="#FEFEFE" transform="translate(489.316650390625,111.886474609375)"/>
<path d="M0 0 C2.31 0 4.62 0 7 0 C6.67 1.65 6.34 3.3 6 5 C7.98 5 9.96 5 12 5 C12.33 5.99 12.66 6.98 13 8 C13.40476562 7.52175781 13.80953125 7.04351562 14.2265625 6.55078125 C17.30807416 3.85615542 21.03382589 3.9930418 25 4 C28 4.75 28 4.75 30 6 C30.495 7.485 30.495 7.485 31 9 C31.33 7.68 31.66 6.36 32 5 C33.93596892 4.77788884 35.87389328 4.57277008 37.8125 4.375 C38.89144531 4.25898438 39.97039063 4.14296875 41.08203125 4.0234375 C44 4 44 4 47 6 C47.33 5.67 47.66 5.34 48 5 C50.33297433 4.95907063 52.66705225 4.95758277 55 5 C55.495 6.485 55.495 6.485 56 8 C56.40476562 7.52175781 56.80953125 7.04351562 57.2265625 6.55078125 C59.35807348 4.68688288 60.58498078 4.46840637 63.375 4.1875 C64.12523437 4.09855469 64.87546875 4.00960938 65.6484375 3.91796875 C68.44970505 4.01568739 70.46718749 4.84099215 73 6 C73.34961837 13.04416267 73.2370968 18.64141701 70 25 C67.12475685 27.55577168 63.60325851 27.29179817 59.90234375 27.1953125 C57.54860856 26.95365591 55.92283611 26.384442 54 25 C53.505 24.01 53.505 24.01 53 23 C52.67 24.32 52.34 25.64 52 27 C49.36 27 46.72 27 44 27 C44.66 23.04 45.32 19.08 46 15 C44.02 15 42.04 15 40 15 C39.505 14.505 39.505 14.505 39 14 C38.01 18.29 37.02 22.58 36 27 C33.69 27 31.38 27 29 27 C28.505 25.02 28.505 25.02 28 23 C27.34 23.66 26.68 24.32 26 25 C22.18440664 27.5437289 19.46719357 27.78356016 15 27 C12 25.5 12 25.5 10 24 C9.484375 24.495 8.96875 24.99 8.4375 25.5 C5.13278796 27.53366895 2.81546222 27.3468602 -1 27 C-1.99 26.34 -2.98 25.68 -4 25 C-3.91621094 24.11957031 -3.83242188 23.23914063 -3.74609375 22.33203125 C-3.64425781 21.17058594 -3.54242188 20.00914062 -3.4375 18.8125 C-3.33308594 17.66394531 -3.22867187 16.51539063 -3.12109375 15.33203125 C-3.01102766 12.30343861 -3.37933397 9.93642834 -4 7 C-3.67 6.34 -3.34 5.68 -3 5 C-2.34 5 -1.68 5 -1 5 C-0.67 3.35 -0.34 1.7 0 0 Z M54 10 C55 13 55 13 55 13 Z M5 11 C4.67 13.64 4.34 16.28 4 19 C4.66 18.34 5.32 17.68 6 17 C8.625 16.875 8.625 16.875 11 17 C11.33 15.02 11.66 13.04 12 11 C9.69 11 7.38 11 5 11 Z M19 11 C18.67 13.97 18.34 16.94 18 20 C19.32 19.67 20.64 19.34 22 19 C22.33 16.36 22.66 13.72 23 11 C21.68 11 20.36 11 19 11 Z M63 11 C61.50178941 14.37097383 61 16.20442119 61 20 C62.32 19.67 63.64 19.34 65 19 C65.33 16.36 65.66 13.72 66 11 C65.01 11 64.02 11 63 11 Z M29 17 C30 21 30 21 30 21 Z " fill="#FEFEFE" transform="translate(509,263)"/>
<path d="M0 0 C2.64 0 5.28 0 8 0 C7.67 3.96 7.34 7.92 7 12 C7.99 11.01 8.98 10.02 10 9 C14.59425939 7.76967291 18.67727047 7.3661921 23 9.4375 C23.66 9.953125 24.32 10.46875 25 11 C27.16715487 11.18850945 27.16715487 11.18850945 29.1875 9.5 C32.69383409 7.62995515 35.07507253 7.70926463 39 8 C39.99 8.33 40.98 8.66 42 9 C42.495 12.465 42.495 12.465 43 16 C42.34 16.33 41.68 16.66 41 17 C41.5878125 18.0209375 41.5878125 18.0209375 42.1875 19.0625 C43.34815302 23.25870709 42.10028239 25.28950111 40 29 C35.93704554 31.61930894 31.69004466 31.74008044 27 31 C24.4375 29 24.4375 29 23 27 C22.566875 27.474375 22.13375 27.94875 21.6875 28.4375 C18.56475341 31.32893203 15.05929124 31.323532 10.94140625 31.30078125 C8.01326427 30.84712545 6.72691055 29.3025474 5 27 C4.34 28.32 3.68 29.64 3 31 C0.72942623 31.05398987 -1.54151288 31.09278742 -3.8125 31.125 C-5.70935547 31.15980469 -5.70935547 31.15980469 -7.64453125 31.1953125 C-11 31 -11 31 -14 29 C-14.33 28.01 -14.66 27.02 -15 26 C-15.33 27.65 -15.66 29.3 -16 31 C-18.64 31 -21.28 31 -24 31 C-23.52504948 27.89517294 -23.04431252 24.79126899 -22.5625 21.6875 C-22.42779297 20.80642578 -22.29308594 19.92535156 -22.15429688 19.01757812 C-22.02216797 18.17001953 -21.89003906 17.32246094 -21.75390625 16.44921875 C-21.63345947 15.66893311 -21.5130127 14.88864746 -21.38891602 14.0847168 C-21 12 -21 12 -20 9 C-17.69 9 -15.38 9 -13 9 C-12.67 9.99 -12.34 10.98 -12 12 C-11.62875 11.525625 -11.2575 11.05125 -10.875 10.5625 C-7.9635715 8.13630958 -4.70616956 8 -1 8 C-0.67 5.36 -0.34 2.72 0 0 Z M-14 14 C-13 18 -13 18 -13 18 Z M33 14 C32.67 14.66 32.34 15.32 32 16 C33.32 16 34.64 16 36 16 C36 15.34 36 14.68 36 14 C35.01 14 34.02 14 33 14 Z M-6 15 C-6.33 17.97 -6.66 20.94 -7 24 C-5.68 23.67 -4.36 23.34 -3 23 C-2.67 20.36 -2.34 17.72 -2 15 C-3.32 15 -4.64 15 -6 15 Z M14 15 C13.67 17.97 13.34 20.94 13 24 C13.99 24 14.98 24 16 24 C16.66 21.03 17.32 18.06 18 15 C16.68 15 15.36 15 14 15 Z M5 16 C5 17.65 5 19.3 5 21 C5.33 21 5.66 21 6 21 C6 19.35 6 17.7 6 16 C5.67 16 5.34 16 5 16 Z M24 19 C24 20.32 24 21.64 24 23 C25.98 23 27.96 23 30 23 C27.28996707 20.32668287 27.28996707 20.32668287 24 19 Z M31 23 C31 23.66 31 24.32 31 25 C32.32 25 33.64 25 35 25 C35 24.34 35 23.68 35 23 C33.68 23 32.36 23 31 23 Z " fill="#FEFEFE" transform="translate(962,259)"/>
<path d="M0 0 C2.31 0 4.62 0 7 0 C7 3.96 7 7.92 7 12 C7.99 11.01 8.98 10.02 10 9 C12.12109375 8.41796875 12.12109375 8.41796875 14.4375 8.1875 C15.19933594 8.09855469 15.96117187 8.00960938 16.74609375 7.91796875 C19.35465077 8.01290757 20.81181507 8.60052348 23 10 C25.29771912 14.59543825 24.09723316 20.40034428 22.74609375 25.19921875 C21.46493595 28.29143731 19.93457726 29.46891621 17 31 C13.22498735 31.65293459 10.0350865 31.53081359 6.5625 29.75 C4.84011873 27.82093298 4.35021241 26.53903996 4 24 C3.34 26.31 2.68 28.62 2 31 C-0.08268593 31.08126087 -2.16628658 31.13930839 -4.25 31.1875 C-5.99023438 31.23970703 -5.99023438 31.23970703 -7.765625 31.29296875 C-11.25740943 30.97668393 -12.62146853 30.54057255 -15 28 C-15.72752951 21.97189837 -14.7604155 16.44353937 -12 11 C-9.6875 8.875 -9.6875 8.875 -7 8 C-3.6875 8.3125 -3.6875 8.3125 -1 9 C-0.67 6.03 -0.34 3.06 0 0 Z M5 14 C6 18 6 18 6 18 Z M-6 15 C-7.4783226 17.95664519 -7.06032783 20.74229737 -7 24 C-6.01 24 -5.02 24 -4 24 C-2.5216774 21.04335481 -2.93967217 18.25770263 -3 15 C-3.99 15 -4.98 15 -6 15 Z M13 15 C17 16 17 16 17 16 Z M12 21 C12.33 22.32 12.66 23.64 13 25 C13.99 24.67 14.98 24.34 16 24 C16 23.34 16 22.68 16 22 C14.68 21.67 13.36 21.34 12 21 Z " fill="#FEFEFE" transform="translate(608,259)"/>
<path d="M0 0 C2.31 0 4.62 0 7 0 C6.67 2.97 6.34 5.94 6 9 C7.3303125 8.5978125 7.3303125 8.5978125 8.6875 8.1875 C12 8 12 8 14.875 10.4375 C15.57625 11.283125 16.2775 12.12875 17 13 C17.39445312 12.35933594 17.78890625 11.71867187 18.1953125 11.05859375 C20.42994774 8.50956178 21.54873966 8.35064109 24.875 8.0625 C28.00903898 7.89296865 30.07309364 8.02046622 33.125 8.875 C35.68326237 11.77436402 35.58341924 13.80544607 35.35546875 17.58203125 C34.62701125 22.53714327 33.5769616 26.55820653 29.8125 30 C26.10211187 31.31924911 22.88969753 31.74500255 19 31 C16 29 16 29 14 27 C13.649375 27.474375 13.29875 27.94875 12.9375 28.4375 C8.2372161 32.22805153 0.78604833 31.0978772 -5 31 C-4.31889294 24.06704711 -3.21959819 17.28290765 -1.9375 10.4375 C-1.75123047 9.42880859 -1.56496094 8.42011719 -1.37304688 7.38085938 C-0.91820197 4.92003184 -0.46046882 2.45978026 0 0 Z M6 15 C3.70986347 18.4352048 3.82157027 19.985331 4 24 C4.99 24 5.98 24 7 24 C7.66 21.36 8.32 18.72 9 16 C8.01 15.67 7.02 15.34 6 15 Z M24 15 C23.67 17.97 23.34 20.94 23 24 C24.32 23.67 25.64 23.34 27 23 C27.33 20.36 27.66 17.72 28 15 C26.68 15 25.36 15 24 15 Z M15 19 C16 23 16 23 16 23 Z " fill="#FEFEFE" transform="translate(434,259)"/>
<path d="M0 0 C0.66 0.99 1.32 1.98 2 3 C2.33 2.01 2.66 1.02 3 0 C5.0825867 -0.19561869 7.16611856 -0.38119313 9.25 -0.5625 C10.41015625 -0.66691406 11.5703125 -0.77132813 12.765625 -0.87890625 C15.56825142 -0.9838355 17.35842422 -0.73052428 20 0 C21.485 -0.309375 21.485 -0.309375 23 -0.625 C26 -1 26 -1 28.1953125 0.12109375 C30 2 30 2 30.2421875 4.63671875 C30.06042969 6.14685547 30.06042969 6.14685547 29.875 7.6875 C29.68744141 9.27884766 29.68744141 9.27884766 29.49609375 10.90234375 C28.88832271 14.69732356 28.06496357 18.30812629 27 22 C24.69 22 22.38 22 20 22 C20.14235457 20.27054347 20.28904382 18.54144346 20.4375 16.8125 C20.51871094 15.84957031 20.59992187 14.88664062 20.68359375 13.89453125 C20.97666151 11.21350398 21.42703754 8.6337014 22 6 C21.34 6.33 20.68 6.66 20 7 C19.36198164 9.5315866 18.83312632 11.99839502 18.375 14.5625 C18.2409375 15.27341797 18.106875 15.98433594 17.96875 16.71679688 C17.63808153 18.47642553 17.31804233 20.23804548 17 22 C14.69 22 12.38 22 10 22 C10.14109986 19.89551062 10.28804175 17.7914123 10.4375 15.6875 C10.51871094 14.51574219 10.59992187 13.34398437 10.68359375 12.13671875 C11 9 11 9 12 6 C11.01 6.495 11.01 6.495 10 7 C9.39569708 9.31312122 8.88951459 11.65236404 8.4375 14 C7.09386733 20.90613267 7.09386733 20.90613267 6 22 C4.02 22 2.04 22 0 22 C0 18.04 0 14.08 0 10 C-1.98 10 -3.96 10 -6 10 C-6.33 9.01 -6.66 8.02 -7 7 C-7.99 11.95 -8.98 16.9 -10 22 C-12.31 22 -14.62 22 -17 22 C-16.51172287 14.52165033 -15.66594452 7.31074682 -14 0 C-3.92395139 -1.42689142 -3.92395139 -1.42689142 0 0 Z " fill="#FEFEFE" transform="translate(699,268)"/>
<path d="M0 0 C2.64 0 5.28 0 8 0 C7.29411026 7.05889737 6.21786614 14.01204964 5 21 C8.3 21.33 11.6 21.66 15 22 C15.33 20.68 15.66 19.36 16 18 C16.66 17.67 17.32 17.34 18 17 C17.34 16.67 16.68 16.34 16 16 C17.32173913 10.47272727 17.32173913 10.47272727 20.0625 8.5625 C24.12443611 7.78468245 27.97822125 8.02023465 32 9 C34 11 34 11 34.3125 13.8125 C34.17577205 19.65451241 32.42332316 25.36601251 31 31 C28.72942623 31.05398987 26.45848712 31.09278742 24.1875 31.125 C22.29064453 31.15980469 22.29064453 31.15980469 20.35546875 31.1953125 C17 31 17 31 14 29 C13.67 29.66 13.34 30.32 13 31 C7.06 31 1.12 31 -5 31 C-4.38013299 20.46226083 -2.17885538 10.30376016 0 0 Z M24 14 C24 14.99 24 15.98 24 17 C24.66 17 25.32 17 26 17 C26.33 16.01 26.66 15.02 27 14 C26.01 14 25.02 14 24 14 Z M22 22 C21.67 22.99 21.34 23.98 21 25 C22.32 25 23.64 25 25 25 C25 24.01 25 23.02 25 22 C24.01 22 23.02 22 22 22 Z " fill="#FEFEFE" transform="translate(396,259)"/>
<path d="M0 0 C2.05078125 0.03255208 4.1015625 0.06510417 6.15234375 0.09765625 C5.16936313 7.54321157 4.17946589 14.85793432 2.15234375 22.09765625 C4.13234375 22.09765625 6.11234375 22.09765625 8.15234375 22.09765625 C8.28080688 21.25787231 8.28080688 21.25787231 8.41186523 20.40112305 C8.80182436 17.86204417 9.19578891 15.32360257 9.58984375 12.78515625 C9.72455078 11.90408203 9.85925781 11.02300781 9.99804688 10.11523438 C10.13017578 9.26767578 10.26230469 8.42011719 10.3984375 7.546875 C10.51888428 6.76658936 10.63933105 5.98630371 10.76342773 5.18237305 C11.15234375 3.09765625 11.15234375 3.09765625 12.15234375 0.09765625 C14.79234375 0.09765625 17.43234375 0.09765625 20.15234375 0.09765625 C19.87046551 6.74998268 18.86417007 13.13028329 17.33984375 19.59765625 C17.18676758 20.29181641 17.03369141 20.98597656 16.87597656 21.70117188 C16.11819034 24.75932698 15.48044225 26.77679038 13.203125 29.00390625 C7.73093542 31.92240736 1.96353126 31.90085268 -3.91015625 30.22265625 C-6.12944393 27.78859879 -6.21207914 27.16142981 -6.34765625 23.97265625 C-5.18561617 0.27408119 -5.18561617 0.27408119 0 0 Z " fill="#FEFEFE" transform="translate(901.84765625,258.90234375)"/>
<path d="M0 0 C6.27 0 12.54 0 19 0 C19 6 19 6 18 8 C14.37 8 10.74 8 7 8 C7 9.32 7 10.64 7 12 C9.97 12 12.94 12 16 12 C16.125 17.75 16.125 17.75 15 20 C11.7 20 8.4 20 5 20 C4.855625 21.629375 4.71125 23.25875 4.5625 24.9375 C4.125 29.875 4.125 29.875 3 31 C0.32941149 31.14115161 -2.32432238 31.04247107 -5 31 C-3.60017255 20.60833977 -1.86066075 10.3182096 0 0 Z " fill="#FEFEFE" transform="translate(647,259)"/>
<path d="M0 0 C0.88945312 0.09023438 1.77890625 0.18046875 2.6953125 0.2734375 C4.875 0.625 4.875 0.625 5.875 1.625 C6.50912495 8.79208667 5.36330769 15.63526926 3.875 22.625 C1.43683415 22.7059723 -0.99864384 22.76546972 -3.4375 22.8125 C-4.47293945 22.85020508 -4.47293945 22.85020508 -5.52929688 22.88867188 C-10.60791272 22.962275 -10.60791272 22.962275 -13.11328125 21.328125 C-14.88058664 18.3530472 -13.91696988 15.84944878 -13.125 12.625 C-12.58875 11.92375 -12.0525 11.2225 -11.5 10.5 C-11.04625 9.88125 -10.5925 9.2625 -10.125 8.625 C-10.45050502 6.95678677 -10.78346063 5.29000443 -11.125 3.625 C-8.20053193 -0.4692553 -4.6740996 -0.50420316 0 0 Z M-4.125 5.625 C-3.795 6.615 -3.465 7.605 -3.125 8.625 C-2.465 8.625 -1.805 8.625 -1.125 8.625 C-1.125 7.635 -1.125 6.645 -1.125 5.625 C-2.115 5.625 -3.105 5.625 -4.125 5.625 Z M-6.125 13.625 C-6.125 14.615 -6.125 15.605 -6.125 16.625 C-4.805 16.295 -3.485 15.965 -2.125 15.625 C-2.125 14.965 -2.125 14.305 -2.125 13.625 C-3.445 13.625 -4.765 13.625 -6.125 13.625 Z " fill="#FEFEFE" transform="translate(498.125,267.375)"/>
<path d="M0 0 C2.5 0.9375 2.5 0.9375 4 3 C4.21909203 5.38423685 4.18603114 7.64953389 4.04296875 10.0390625 C4.02169922 11.00972656 4.02169922 11.00972656 4 12 C4.33 12.33 4.66 12.66 5 13 C5.375 15.8125 5.375 15.8125 5 19 C2.90120818 21.49231528 1.31449923 22.76413219 -1.9375 23.34765625 C-6.41362538 23.54263898 -9.39325368 22.84167892 -13 20 C-13.33 19.34 -13.66 18.68 -14 18 C-16.12576782 17.53348793 -16.12576782 17.53348793 -18.5625 17.375 C-19.38878906 17.30023438 -20.21507812 17.22546875 -21.06640625 17.1484375 C-21.70449219 17.09945313 -22.34257813 17.05046875 -23 17 C-23 15.02 -23 13.04 -23 11 C-20.03 11 -17.06 11 -14 11 C-13.67 12.32 -13.34 13.64 -13 15 C-11.02 15 -9.04 15 -7 15 C-7 15.66 -7 16.32 -7 17 C-5.02463255 16.65213292 -5.02463255 16.65213292 -3 16 C-2.67 15.34 -2.34 14.68 -2 14 C-3.65 14 -5.3 14 -7 14 C-7 12.35 -7 10.7 -7 9 C-6.01 8.67 -5.02 8.34 -4 8 C-3.67 7.34 -3.34 6.68 -3 6 C-3.99 6 -4.98 6 -6 6 C-6 6.66 -6 7.32 -6 8 C-8.31 8 -10.62 8 -13 8 C-12.68762196 5.11050316 -12.35661121 3.41366901 -10.4375 1.1875 C-6.9137532 -0.52919716 -3.84706898 -0.54395033 0 0 Z " fill="#FEFEFE" transform="translate(616,294)"/>
<path d="M0 0 C0.58652344 0.32613281 1.17304687 0.65226562 1.77734375 0.98828125 C2.02682205 8.27859149 1.50065282 14.89501804 -0.22265625 21.98828125 C-2.49323002 22.04227112 -4.76416913 22.08106867 -7.03515625 22.11328125 C-8.93201172 22.14808594 -8.93201172 22.14808594 -10.8671875 22.18359375 C-14.22265625 21.98828125 -14.22265625 21.98828125 -17.22265625 19.98828125 C-17.74697847 14.57028494 -17.70138911 12.22326039 -14.22265625 7.98828125 C-14.38765625 7.32828125 -14.55265625 6.66828125 -14.72265625 5.98828125 C-15.22265625 3.98828125 -15.22265625 3.98828125 -13.97265625 1.80078125 C-10.37304946 -1.92738293 -4.58883572 -2.08876705 0 0 Z M-7.22265625 4.98828125 C-7.22265625 5.97828125 -7.22265625 6.96828125 -7.22265625 7.98828125 C-6.56265625 7.98828125 -5.90265625 7.98828125 -5.22265625 7.98828125 C-5.22265625 6.99828125 -5.22265625 6.00828125 -5.22265625 4.98828125 C-5.88265625 4.98828125 -6.54265625 4.98828125 -7.22265625 4.98828125 Z M-9.22265625 12.98828125 C-9.55265625 13.97828125 -9.88265625 14.96828125 -10.22265625 15.98828125 C-8.90265625 15.65828125 -7.58265625 15.32828125 -6.22265625 14.98828125 C-6.22265625 14.32828125 -6.22265625 13.66828125 -6.22265625 12.98828125 C-7.21265625 12.98828125 -8.20265625 12.98828125 -9.22265625 12.98828125 Z " fill="#FEFEFE" transform="translate(680.22265625,268.01171875)"/>
<path d="M0 0 C2 2 2 2 2.046875 4.28515625 C1.40178665 10.32012757 0.44973798 16.10439888 -1 22 C-3.31 22 -5.62 22 -8 22 C-7.85764543 20.27054347 -7.71095618 18.54144346 -7.5625 16.8125 C-7.48128906 15.84957031 -7.40007813 14.88664062 -7.31640625 13.89453125 C-7.02333849 11.21350398 -6.57296246 8.6337014 -6 6 C-6.99 6 -7.98 6 -9 6 C-9.13277344 7.07121094 -9.26554688 8.14242188 -9.40234375 9.24609375 C-9.5805056 10.64325769 -9.75890319 12.04039159 -9.9375 13.4375 C-10.06801758 14.49807617 -10.06801758 14.49807617 -10.20117188 15.58007812 C-10.88671875 20.88671875 -10.88671875 20.88671875 -12 22 C-14.33297433 22.04092937 -16.66705225 22.04241723 -19 22 C-17.38297872 2.38297872 -17.38297872 2.38297872 -15 0 C-9.91614132 -0.96325743 -5.04505104 -1.35355028 0 0 Z " fill="#FEFEFE" transform="translate(938,268)"/>
<path d="M0 0 C2.75329021 1.79562405 4.52627461 3.05254922 6 6 C6.42526125 10.62062705 6.56310381 14.71290557 4.6875 19 C3 21 3 21 0 23 C-3.30494327 23.24035951 -6.14680489 23.20207253 -9.375 22.4375 C-12.01706077 20.1002924 -11.75847689 17.3813235 -12 14 C-12 13.34 -12 12.68 -12 12 C-12.2475 10.88625 -12.495 9.7725 -12.75 8.625 C-13 5 -13 5 -11.1875 2.625 C-7.33418475 -0.23746276 -4.81479894 -0.40803381 0 0 Z M-5 6 C-5 7.32 -5 8.64 -5 10 C-4.01 10 -3.02 10 -2 10 C-2 8.68 -2 7.36 -2 6 C-2.99 6 -3.98 6 -5 6 Z M-6 15 C-5.67 15.66 -5.34 16.32 -5 17 C-4.01 17 -3.02 17 -2 17 C-2 16.34 -2 15.68 -2 15 C-3.32 15 -4.64 15 -6 15 Z " fill="#FEFEFE" transform="translate(673,294)"/>
<path d="M0 0 C2.9375 1.625 2.9375 1.625 5 5 C5.6897568 9.74978867 5.95558689 14.28389766 5 19 C2.04717447 22.0723328 0.70935887 22.92533065 -3.5625 23.375 C-8.52452026 22.8336887 -8.52452026 22.8336887 -11 21 C-13.01290083 17.79667395 -13.270596 15.24847272 -13.25 11.5 C-13.25515625 10.5615625 -13.2603125 9.623125 -13.265625 8.65625 C-12.99277346 5.92773458 -12.44957344 4.30684805 -11 2 C-7.56199608 -0.54666957 -4.14893725 -0.50951861 0 0 Z M-5 6 C-6.49297212 8.98594424 -6.11755228 11.70853624 -6 15 C-5.67 15.66 -5.34 16.32 -5 17 C-4.01 17 -3.02 17 -2 17 C-2 13.37 -2 9.74 -2 6 C-2.99 6 -3.98 6 -5 6 Z " fill="#FEFEFE" transform="translate(635,294)"/>
<path d="M0 0 C2.9375 1.6875 2.9375 1.6875 5 4 C5.3125 6.5625 5.3125 6.5625 5 9 C4.87630838 12.02083001 4.87630838 12.02083001 5.75 14.9375 C6 18 6 18 4.1875 20.3125 C0.23865754 23.3587499 -3.14388102 23.35579486 -8 23 C-10.4375 22.375 -10.4375 22.375 -12 21 C-12.75 17.875 -12.75 17.875 -13 15 C-10.69 15 -8.38 15 -6 15 C-6 15.66 -6 16.32 -6 17 C-4.68 17 -3.36 17 -2 17 C-2 16.01 -2 15.02 -2 14 C-3.32 14 -4.64 14 -6 14 C-6.1875 11.625 -6.1875 11.625 -6 9 C-5.01 8.34 -4.02 7.68 -3 7 C-3.99 6.67 -4.98 6.34 -6 6 C-6 6.66 -6 7.32 -6 8 C-7.98 8 -9.96 8 -12 8 C-12.3125 5.6875 -12.3125 5.6875 -12 3 C-8.25070453 -0.29483541 -4.85787785 -0.60723473 0 0 Z " fill="#FEFEFE" transform="translate(712,294)"/>
<path d="M0 0 C0.74886475 0.00523682 1.49772949 0.01047363 2.26928711 0.01586914 C3.07817383 0.0190918 3.88706055 0.02231445 4.72045898 0.02563477 C5.5705957 0.03401367 6.42073242 0.04239258 7.29663086 0.05102539 C8.15063477 0.05553711 9.00463867 0.06004883 9.88452148 0.06469727 C12.00108749 0.07652166 14.11761771 0.0944577 16.23413086 0.11352539 C16.43499529 3.8295173 16.38607456 4.88560984 14.23413086 8.11352539 C13.57413086 8.11352539 12.91413086 8.11352539 12.23413086 8.11352539 C12.01950195 9.18666992 12.01950195 9.18666992 11.80053711 10.28149414 C10.94506836 14.55883789 10.08959961 18.83618164 9.23413086 23.11352539 C6.59413086 23.11352539 3.95413086 23.11352539 1.23413086 23.11352539 C0.17585089 20.37963548 0.07138168 18.58807622 1.02319336 15.81274414 C3.80182427 9.54583198 3.80182427 9.54583198 5.23413086 8.11352539 C2.59413086 7.78352539 -0.04586914 7.45352539 -2.76586914 7.11352539 C-2.8084127 5.11397793 -2.80667697 3.11310903 -2.76586914 1.11352539 C-1.76586914 0.11352539 -1.76586914 0.11352539 0 0 Z " fill="#FEFEFE" transform="translate(739.765869140625,293.886474609375)"/>
<path d="M0 0 C5.94 0 11.88 0 18 0 C19 3 19 3 17.8203125 5.41796875 C17.26085937 6.33191406 16.70140625 7.24585938 16.125 8.1875 C13.34512931 13.02177859 12.30662092 16.48082352 12 22 C11 23 11 23 9.15234375 23.09765625 C7.1015625 23.06510417 5.05078125 23.03255208 3 23 C3.36504064 17.33557626 4.0554321 12.99296295 7 8 C4.69 7.67 2.38 7.34 0 7 C0 4.69 0 2.38 0 0 Z " fill="#FEFEFE" transform="translate(766,294)"/>
<path d="M0 0 C6.27 0 12.54 0 19 0 C19 5.38292724 18.34234626 5.9308834 15.24609375 9.88671875 C12.89512438 13.87378592 12.54935228 18.46579389 12 23 C9.36 23 6.72 23 4 23 C3.54643757 16.53673535 4.40621058 13.39068413 8 8 C5.36 7.67 2.72 7.34 0 7 C0 4.69 0 2.38 0 0 Z " fill="#FEFEFE" transform="translate(641,294)"/>
<path d="M0 0 C0.33 5.28 0.66 10.56 1 16 C2.32 16.33 3.64 16.66 5 17 C5 18.98 5 20.96 5 23 C-0.61 23 -6.22 23 -12 23 C-12 20.69 -12 18.38 -12 16 C-10.35 16 -8.7 16 -7 16 C-7 13.69 -7 11.38 -7 9 C-8.65 9 -10.3 9 -12 9 C-12 7.35 -12 5.7 -12 4 C-10.56570999 3.32645501 -9.12742943 2.66140299 -7.6875 2 C-6.88699219 1.62875 -6.08648438 1.2575 -5.26171875 0.875 C-3 0 -3 0 0 0 Z " fill="#FEFEFE" transform="translate(732,294)"/>
<path d="M0 0 C2.64 0 5.28 0 8 0 C8.14510162 3.27036728 8.23399373 6.53991007 8.3125 9.8125 C8.35439453 10.74126953 8.39628906 11.67003906 8.43945312 12.62695312 C8.48543016 15.17408092 8.47102055 17.49557737 8 20 C5.06869361 22.69242233 3.45360085 22.95139991 -0.5 23.375 C-4.28336026 22.96963997 -6.14909515 22.51550428 -9 20 C-9.8125 16.8125 -9.8125 16.8125 -10 14 C-7.36 14 -4.72 14 -2 14 C-2 14.66 -2 15.32 -2 16 C-1.34 16 -0.68 16 0 16 C0 10.72 0 5.44 0 0 Z " fill="#FEFEFE" transform="translate(583,294)"/>
<path d="M0 0 C0 5.28 0 10.56 0 16 C1.65 16.33 3.3 16.66 5 17 C5 18.98 5 20.96 5 23 C-0.61 23 -6.22 23 -12 23 C-12 21.02 -12 19.04 -12 17 C-10.68 16.67 -9.36 16.34 -8 16 C-7.67 13.69 -7.34 11.38 -7 9 C-8.65 9 -10.3 9 -12 9 C-12 7.35 -12 5.7 -12 4 C-10.56570999 3.32645501 -9.12742943 2.66140299 -7.6875 2 C-6.88699219 1.62875 -6.08648438 1.2575 -5.26171875 0.875 C-3 0 -3 0 0 0 Z " fill="#FEFEFE" transform="translate(693,294)"/>
<path d="M0 0 C0 2.97 0 5.94 0 9 C-2.31 9 -4.62 9 -7 9 C-7.33 8.01 -7.66 7.02 -8 6 C-8.99 10.95 -9.98 15.9 -11 21 C-13.31 21 -15.62 21 -18 21 C-17.37727768 13.5928819 -16.29512034 6.31805865 -15 -1 C-4.44191344 -2.51708428 -4.44191344 -2.51708428 0 0 Z " fill="#FEFEFE" transform="translate(486,269)"/>
<path d="M0 0 C3.3 0 6.6 0 10 0 C10 1.65 10 3.3 10 5 C9 6 9 6 6.93359375 6.09765625 C6.10988281 6.08605469 5.28617188 6.07445312 4.4375 6.0625 C3.61121094 6.05347656 2.78492188 6.04445313 1.93359375 6.03515625 C1.29550781 6.02355469 0.65742187 6.01195312 0 6 C0 4.02 0 2.04 0 0 Z " fill="#FEFEFE" transform="translate(756,305)"/>
<path d="M0 0 C1.134375 0.020625 2.26875 0.04125 3.4375 0.0625 C3.1075 2.3725 2.7775 4.6825 2.4375 7.0625 C0.1275 7.0625 -2.1825 7.0625 -4.5625 7.0625 C-4.60504356 5.06295254 -4.60330783 3.06208364 -4.5625 1.0625 C-3.5625 0.0625 -3.5625 0.0625 0 0 Z " fill="#FEFEFE" transform="translate(947.5625,258.9375)"/>
<path d="M0 0 C1.134375 0.020625 2.26875 0.04125 3.4375 0.0625 C3.1075 2.3725 2.7775 4.6825 2.4375 7.0625 C0.1275 7.0625 -2.1825 7.0625 -4.5625 7.0625 C-4.60504356 5.06295254 -4.60330783 3.06208364 -4.5625 1.0625 C-3.5625 0.0625 -3.5625 0.0625 0 0 Z " fill="#FEFEFE" transform="translate(827.5625,258.9375)"/>
<path d="M0 0 C2.64 0 5.28 0 8 0 C7.67 2.31 7.34 4.62 7 7 C4.69 7 2.38 7 0 7 C0 4.69 0 2.38 0 0 Z " fill="#FEFEFE" transform="translate(558,259)"/>
</svg>
